<?xml version="1.0" encoding="UTF-8" standalone="no"?>
<svg
   xmlns:dc="http://purl.org/dc/elements/1.1/"
   xmlns:cc="http://creativecommons.org/ns#"
   xmlns:rdf="http://www.w3.org/1999/02/22-rdf-syntax-ns#"
   xmlns:svg="http://www.w3.org/2000/svg"
   xmlns="http://www.w3.org/2000/svg"
   xmlns:sodipodi="http://sodipodi.sourceforge.net/DTD/sodipodi-0.dtd"
   xmlns:inkscape="http://www.inkscape.org/namespaces/inkscape"
   inkscape:version="1.0 (4035a4fb49, 2020-05-01)"
   sodipodi:docname="layv net.svg"
   id="svg8"
   version="1.1"
   viewBox="0 0 210 297"
   height="297mm"
   width="210mm">
  <defs
     id="defs2" />
  <sodipodi:namedview
     showguides="false"
     inkscape:window-maximized="1"
     inkscape:window-y="-8"
     inkscape:window-x="2552"
     inkscape:window-height="1377"
     inkscape:window-width="2560"
     showborder="false"
     showgrid="false"
     inkscape:document-rotation="0"
     inkscape:current-layer="layer1"
     inkscape:document-units="mm"
     inkscape:cy="515.98354"
     inkscape:cx="-13.871045"
     inkscape:zoom="0.70710678"
     inkscape:pageshadow="2"
     inkscape:pageopacity="0.0"
     borderopacity="1.0"
     bordercolor="#666666"
     pagecolor="#ffffff"
     id="base" />
  <metadata
     id="metadata5">
    <rdf:RDF>
      <cc:Work
         rdf:about="">
        <dc:format>image/svg+xml</dc:format>
        <dc:type
           rdf:resource="http://purl.org/dc/dcmitype/StillImage" />
        <dc:title></dc:title>
      </cc:Work>
    </rdf:RDF>
  </metadata>
  <g
     id="layer1"
     inkscape:groupmode="layer"
     inkscape:label="Layer 1">
    <path
       inkscape:export-ydpi="96"
       inkscape:export-xdpi="96"
       inkscape:export-filename="D:\Data\Repos\layv-net\spotlight-about.png"
       transform="scale(0.26458333)"
       d="M 28.488281 38.578125 L 28.488281 338.57812 L 272.23438 338.57812 A 13.613514 13.613514 0 0 1 285.22656 329.02539 A 13.613514 13.613514 0 0 1 298.21875 338.57812 L 328.48828 338.57812 L 328.48828 282.83984 L 294.72852 321.38867 C 293.72977 322.54697 290.87633 323.12695 286.16797 323.12695 C 281.95898 323.12695 278.7847 321.80378 276.64453 319.15625 C 274.86106 316.83966 273.96875 314.1491 273.96875 311.08789 C 273.96875 307.94395 275.36036 304.75988 278.14258 301.5332 L 316.13086 258.46875 L 316.13086 242.83203 L 301.57617 225.58203 L 267.97656 225.58203 L 251.2832 245.5625 C 249.64241 247.46542 248.07233 248.62344 246.57422 249.03711 C 245.00477 249.53354 242.93734 249.78125 240.36914 249.78125 C 236.44551 249.78125 233.4838 248.87096 231.48633 247.05078 C 228.98947 244.73419 227.74219 241.84011 227.74219 238.36523 C 227.74219 235.9659 228.20541 234.06275 229.13281 232.65625 C 229.20416 232.57351 230.34514 231.16582 232.55664 228.43555 L 251.2832 205.47656 C 253.35202 202.99449 256.38393 201.71164 260.37891 201.62891 L 309.28125 201.62891 C 313.0622 201.71166 316.05803 202.99449 318.26953 205.47656 L 328.48828 217.26367 L 328.48828 38.578125 L 28.488281 38.578125 z M 303.19922 129.01367 L 317.72656 129.01367 C 318.84984 129.03825 319.73947 129.4208 320.39648 130.1582 L 326.31055 136.97852 C 327.03115 137.81423 327.40266 138.82212 327.42383 140.00195 L 327.42383 145.90039 C 327.42383 147.12938 327.30734 148.02646 327.07422 148.5918 C 326.84108 149.10797 326.40536 149.73526 325.76953 150.47266 L 313.4043 164.59375 C 313.10758 164.93787 312.25817 165.10938 310.85938 165.10938 C 309.60893 165.10938 308.66708 164.71624 308.03125 163.92969 C 307.5014 163.24145 307.23633 162.44266 307.23633 161.5332 C 307.23633 160.59917 307.64999 159.65393 308.47656 158.69531 L 319.76172 145.90039 L 319.76172 141.25586 L 315.4375 136.13086 L 305.45508 136.13086 L 300.49609 142.06641 C 300.00863 142.63175 299.54273 142.9767 299.09766 143.09961 C 298.63139 143.24709 298.01689 143.32031 297.25391 143.32031 C 296.08823 143.32031 295.20867 143.04857 294.61523 142.50781 C 293.87343 141.81958 293.50195 140.96009 293.50195 139.92773 C 293.50195 139.21492 293.64049 138.65028 293.91602 138.23242 C 293.93721 138.20784 294.27658 137.78965 294.93359 136.97852 L 300.49609 130.1582 C 301.11072 129.42078 302.01235 129.03824 303.19922 129.01367 z M 195.31641 146.18945 L 217.71875 146.18945 C 219.45083 146.22737 220.82283 146.81607 221.83594 147.95312 L 230.95508 158.4707 C 232.06623 159.75937 232.63937 161.31353 232.67188 163.13281 L 232.67188 172.22852 C 232.67187 174.12361 232.49037 175.50716 232.13086 176.37891 C 231.77137 177.17484 231.10348 178.14223 230.12305 179.2793 L 211.05273 201.05273 C 210.5952 201.58336 209.28781 201.84961 207.13086 201.84961 C 205.20268 201.84961 203.74801 201.24216 202.76758 200.0293 C 201.95055 198.96805 201.54297 197.73636 201.54297 196.33398 C 201.54297 194.89372 202.18051 193.4352 203.45508 191.95703 L 220.85742 172.22852 L 220.85742 165.06445 L 214.18945 157.16211 L 198.79688 157.16211 L 191.15039 166.31641 C 190.39873 167.18815 189.67849 167.7187 188.99219 167.9082 C 188.27321 168.13566 187.3269 168.24805 186.15039 168.24805 C 184.35294 168.24805 182.99514 167.83189 182.08008 166.99805 C 180.93624 165.93679 180.36523 164.61141 180.36523 163.01953 C 180.36523 161.92038 180.57709 161.04863 181.00195 160.4043 C 181.03464 160.3664 181.55721 159.72147 182.57031 158.4707 L 191.15039 147.95312 C 192.09814 146.81607 193.48627 146.22732 195.31641 146.18945 z M 310.58008 166.86328 A 4.0444444 4.0444448 0 0 1 314.625 170.90625 A 4.0444444 4.0444448 0 0 1 310.58008 174.95117 A 4.0444444 4.0444448 0 0 1 306.53711 170.90625 A 4.0444444 4.0444448 0 0 1 310.58008 166.86328 z M 206.69922 204.55078 A 6.2364781 6.2364781 0 0 1 212.93555 210.78711 A 6.2364781 6.2364781 0 0 1 206.69922 217.02344 A 6.2364781 6.2364781 0 0 1 200.46289 210.78711 A 6.2364781 6.2364781 0 0 1 206.69922 204.55078 z M 157.13672 232.10352 L 190.13867 232.10352 C 192.6903 232.15937 194.71261 233.02415 196.20508 234.69922 L 209.63672 250.19336 C 211.27362 252.09176 212.11786 254.38241 212.16602 257.0625 L 212.16602 270.46289 C 212.16602 273.25465 211.90068 275.29392 211.37109 276.57812 C 210.84151 277.75066 209.85448 279.17259 208.41016 280.84766 L 180.31641 312.92578 C 179.64238 313.7075 177.71853 314.09766 174.54102 314.09766 C 171.70052 314.09766 169.55761 313.2047 168.11328 311.41797 C 166.90968 309.85459 166.30664 308.03856 166.30664 305.97266 C 166.30664 303.85092 167.24737 301.70297 169.125 299.52539 L 194.76172 270.46289 L 194.76172 259.91016 L 184.93945 248.26758 L 162.26367 248.26758 L 150.99805 261.75195 C 149.89073 263.03617 148.83134 263.81846 147.82031 264.09766 C 146.76115 264.43268 145.366 264.59961 143.63281 264.59961 C 140.98489 264.59961 138.98475 263.98619 137.63672 262.75781 C 135.95168 261.19442 135.11133 259.23961 135.11133 256.89453 C 135.11133 255.27531 135.42296 253.99217 136.04883 253.04297 C 136.09698 252.98713 136.86691 252.03592 138.35938 250.19336 L 150.99805 234.69922 C 152.39422 233.02415 154.44065 232.15938 157.13672 232.10352 z M 173.9043 318.07812 A 9.1872925 9.1872925 0 0 1 183.0918 327.26562 A 9.1872925 9.1872925 0 0 1 173.9043 336.45312 A 9.1872925 9.1872925 0 0 1 164.7168 327.26562 A 9.1872925 9.1872925 0 0 1 173.9043 318.07812 z "
       style="fill:#d4f2d0;stroke-width:3.74154;stroke-linejoin:round;fill-opacity:1"
       id="rect835" />
    <path
       inkscape:export-ydpi="96"
       inkscape:export-xdpi="96"
       transform="scale(0.26458333)"
       d="M 409.625 61.121094 L 409.625 361.12109 L 505.85352 361.12109 A 138.60351 138.60351 0 0 1 502.96094 332.95312 A 138.60351 138.60351 0 0 1 641.56836 194.35156 A 138.60351 138.60351 0 0 1 709.625 212.21094 L 709.625 61.121094 L 409.625 61.121094 z M 640.98633 227.29297 A 105.65981 105.65981 0 0 0 535.9082 332.95312 A 105.65981 105.65981 0 0 0 539.73242 361.12109 L 655.41992 361.12109 L 632.19531 345.33594 C 627.88162 342.40768 625.55329 337.6868 625.51172 332.85938 C 625.35411 331.97768 625.25391 331.07684 625.25391 330.14844 L 625.25391 303.38086 L 625.25391 261.78516 L 655.72852 261.78516 L 655.72852 277.02344 L 655.72852 324.47656 L 709.625 361.12109 L 709.625 252.13672 A 105.65981 105.65981 0 0 0 641.56836 227.29297 A 105.65981 105.65981 0 0 0 640.98828 227.29297 L 640.98633 227.29297 z "
       style="fill:#ffdcdc;stroke-width:3.74154;stroke-linejoin:round;fill-opacity:1"
       id="rect835-9" />
    <path
       inkscape:export-ydpi="96"
       inkscape:export-xdpi="96"
       inkscape:export-filename="C:\Users\lajw\fugazi.png"
       d="m 199.78588,16.492679 v 73.463215 l 50.58813,-21.701 -5.0183,-11.697994 c -0.3818,-0.890032 0.0267,-1.913668 0.91674,-2.295467 l 13.69322,-5.874062 -3.26646,-7.616071 c -0.38175,-0.890061 0.0277,-1.914183 0.91777,-2.295985 l 21.5439,-9.241811 V 16.492679 Z m 79.375,24.344767 -9.14414,3.922242 3.80183,8.861991 5.34231,-2.29185 z m -14.99081,17.349846 -5.49889,2.359027 7.45949,17.389636 13.03021,-5.589838 v -9.412862 l -9.33431,4.004405 c -0.89003,0.381802 -1.91418,-0.02722 -2.29598,-0.917257 z m -9.59218,19.868035 -41.52253,17.812351 h 66.10552 V 83.875645 l -10.45982,4.487063 -6.5872,2.825668 c -0.89002,0.381802 -1.91366,-0.02774 -2.29546,-0.917773 z"
       style="fill:#f5e3ff;fill-opacity:1;stroke-width:0.989949;stroke-linejoin:round"
       id="rect835-9-0" />
    <path
       d=""
       id="path898"
       style="fill:#000000;stroke-width:0.282222" />
    <path
       d="m 158.00999,116.86363 a 15.902536,15.902536 0 0 0 -15.9029,15.90239 15.902536,15.902536 0 0 0 15.9029,15.90291 15.902536,15.902536 0 0 0 15.90239,-15.90291 15.902536,15.902536 0 0 0 -15.90239,-15.90239 z m -0.0667,3.77962 a 12.122773,12.122773 0 0 1 0.0667,0 12.122773,12.122773 0 0 1 12.12226,12.12277 12.122773,12.122773 0 0 1 -12.12226,12.12278 12.122773,12.122773 0 0 1 -12.12277,-12.12278 12.122773,12.122773 0 0 1 12.05611,-12.12277 z m -1.80506,3.95738 v 4.77232 3.07113 c 0,0.10652 0.0114,0.20993 0.0295,0.31109 0.005,0.55387 0.27194,1.09547 0.76687,1.43144 l 6.92,4.70359 1.9637,-2.89233 -6.1836,-4.2044 v -5.44463 -1.74821 z"
       style="fill:#3b96cd;fill-opacity:0.737903;stroke-width:1;stroke-linejoin:round"
       id="path909" />
    <g
       style="font-style:normal;font-weight:normal;font-size:115.012px;line-height:1.25;font-family:sans-serif;letter-spacing:0px;word-spacing:0px;fill:#000000;fill-opacity:1;stroke:none;stroke-width:2.87531"
       id="text1014"
       aria-label="?" />
    <path
       d="m 47.376562,140.90517 c -1.057005,0.0219 -1.859197,0.36132 -2.406573,1.01803 l -4.954735,6.07456 c -0.585126,0.72239 -0.887011,1.09484 -0.905889,1.11673 -0.245374,0.37214 -0.367935,0.87568 -0.367935,1.51051 0,0.91939 0.330009,1.68511 0.990637,2.29804 0.5285,0.48159 1.312116,0.72244 2.350243,0.72244 0.679504,0 1.226511,-0.0655 1.641762,-0.19689 0.396374,-0.10945 0.811791,-0.41584 1.245917,-0.91932 l 4.416784,-5.2865 h 8.889898 l 3.850928,4.56406 v 4.13722 l -10.051065,11.39414 c -0.73613,0.85373 -1.104327,1.69617 -1.104327,2.52801 0,0.80994 0.236091,1.52182 0.707967,2.13475 0.566254,0.7005 1.406115,1.05058 2.519743,1.05058 1.245754,0 2.000727,-0.15345 2.264979,-0.45992 l 11.013798,-12.57597 c 0.566251,-0.65672 0.953026,-1.21462 1.160652,-1.67432 0.207624,-0.50348 0.311608,-1.30276 0.311608,-2.39727 v -5.25343 c -0.01888,-1.05073 -0.349401,-1.94858 -0.991152,-2.69286 l -5.266347,-6.07456 c -0.585126,-0.65671 -1.377772,-0.99613 -2.378149,-1.01803 z m 6.574274,33.70699 a 3.6019089,3.6019089 0 0 0 -3.601847,3.60185 3.6019089,3.6019089 0 0 0 3.601847,3.60185 3.6019089,3.6019089 0 0 0 3.601847,-3.60185 3.6019089,3.6019089 0 0 0 -3.601847,-3.60185 z"
       style="font-size:62.4442px;line-height:1.25;font-family:'Glass Gauge';-inkscape-font-specification:'Glass Gauge';letter-spacing:0px;word-spacing:0px;stroke-width:1.56111"
       id="path1057" />
    <path
       id="path1059"
       style="font-size:62.4442px;line-height:1.25;font-family:'Glass Gauge';-inkscape-font-specification:'Glass Gauge';letter-spacing:0px;word-spacing:0px;stroke-width:1.05354"
       d="m 20.060368,148.96816 c -0.713336,0.0148 -1.254708,0.24384 -1.624113,0.68703 l -3.343781,4.09952 c -0.394881,0.48751 -0.598613,0.73886 -0.611353,0.75363 -0.165594,0.25115 -0.248306,0.59097 -0.248306,1.01939 0,0.62047 0.222712,1.13723 0.668546,1.55087 0.356667,0.32502 0.885503,0.48756 1.586099,0.48756 0.458574,0 0.82773,-0.0443 1.107968,-0.13287 0.2675,-0.0739 0.547851,-0.28065 0.840827,-0.62043 l 2.980736,-3.56767 h 5.999486 l 2.598859,3.08012 v 2.79207 l -6.783118,7.68951 c -0.496789,0.57615 -0.745272,1.14469 -0.745272,1.70607 0,0.54661 0.159329,1.02702 0.477782,1.44066 0.382145,0.47275 0.948939,0.70902 1.700488,0.70902 0.840717,0 1.350222,-0.1036 1.528556,-0.31039 l 7.432834,-8.4871 c 0.382143,-0.44319 0.643165,-0.8197 0.783285,-1.12994 0.140118,-0.33977 0.210292,-0.87918 0.210292,-1.61783 v -3.54535 c -0.01274,-0.70911 -0.235798,-1.31504 -0.668894,-1.81732 l -3.554076,-4.09952 c -0.394881,-0.44319 -0.929812,-0.67225 -1.60493,-0.68703 z m 4.436752,22.74768 a 2.4308045,2.4308045 0 0 0 -2.430763,2.43077 2.4308045,2.4308045 0 0 0 2.430763,2.43076 2.4308045,2.4308045 0 0 0 2.430763,-2.43076 2.4308045,2.4308045 0 0 0 -2.430763,-2.43077 z" />
    <path
       d="m 30.162324,126.23689 c -0.484224,0.01 -0.851715,0.16552 -1.102473,0.46636 l -2.269811,2.78282 c -0.268051,0.33093 -0.406349,0.50155 -0.414997,0.51158 -0.112411,0.17048 -0.168554,0.40116 -0.168554,0.69198 0,0.42118 0.151181,0.77197 0.45382,1.05276 0.242111,0.22062 0.601094,0.33095 1.07667,0.33095 0.311285,0 0.561874,-0.03 0.752104,-0.0902 0.181584,-0.0501 0.37189,-0.1905 0.570768,-0.42115 l 2.02337,-2.4218 h 4.072545 l 1.764146,2.09084 v 1.8953 l -4.604487,5.21976 c -0.337229,0.3911 -0.505902,0.77703 -0.505902,1.15811 0,0.37104 0.108154,0.69716 0.324325,0.97795 0.259407,0.3209 0.644156,0.48128 1.154319,0.48128 0.570691,0 0.916551,-0.0703 1.037608,-0.2107 l 5.045523,-5.76117 c 0.259405,-0.30084 0.436591,-0.55643 0.531707,-0.76702 0.09512,-0.23065 0.14275,-0.5968 0.14275,-1.09821 v -2.40665 c -0.0086,-0.48135 -0.160064,-0.89266 -0.454056,-1.23362 l -2.412563,-2.78282 c -0.268052,-0.30084 -0.631171,-0.45633 -1.089452,-0.46636 z m 3.011736,15.44148 a 1.6500682,1.6500682 0 0 0 -1.650039,1.65004 1.6500682,1.6500682 0 0 0 1.650039,1.65004 1.6500682,1.6500682 0 0 0 1.65004,-1.65004 1.6500682,1.6500682 0 0 0 -1.65004,-1.65004 z"
       style="font-size:62.4442px;line-height:1.25;font-family:'Glass Gauge';-inkscape-font-specification:'Glass Gauge';letter-spacing:0px;word-spacing:0px;stroke-width:0.715159"
       id="path1061" />
    <path
       id="path1063"
       style="font-size:62.4442px;line-height:1.25;font-family:'Glass Gauge';-inkscape-font-specification:'Glass Gauge';letter-spacing:0px;word-spacing:0px;stroke-width:0.463791"
       d="m 58.70609,121.69251 c -0.314025,0.006 -0.552349,0.10733 -0.714969,0.30244 l -1.472004,1.8047 c -0.173835,0.21461 -0.263524,0.32526 -0.269131,0.33176 -0.0729,0.11056 -0.10931,0.26016 -0.10931,0.44876 0,0.27314 0.09804,0.50063 0.294308,0.68273 0.157013,0.14308 0.389818,0.21463 0.698236,0.21463 0.201873,0 0.364383,-0.0195 0.48775,-0.0585 0.11776,-0.0325 0.241176,-0.12354 0.370151,-0.27312 l 1.312185,-1.57057 h 2.641102 l 1.144074,1.35594 v 1.22913 l -2.986075,3.38509 c -0.218697,0.25363 -0.328084,0.50391 -0.328084,0.75104 0,0.24063 0.07014,0.45212 0.210329,0.63422 0.168229,0.20811 0.417744,0.31212 0.748592,0.31212 0.370102,0 0.594396,-0.0456 0.672904,-0.13664 l 3.272093,-3.7362 c 0.168228,-0.19511 0.283135,-0.36085 0.344819,-0.49743 0.06168,-0.14958 0.09258,-0.38703 0.09258,-0.7122 v -1.56075 c -0.0056,-0.31216 -0.103804,-0.5789 -0.294463,-0.80002 l -1.564581,-1.80469 c -0.173835,-0.19511 -0.409323,-0.29594 -0.706525,-0.30245 z m 1.953154,10.01402 a 1.0700926,1.0700927 0 0 0 -1.070074,1.07007 1.0700926,1.0700927 0 0 0 1.070074,1.07008 1.0700926,1.0700927 0 0 0 1.070075,-1.07008 1.0700926,1.0700927 0 0 0 -1.070075,-1.07007 z" />
    <rect
       style="fill:#f1f1f1;stroke-width:0.98995;stroke-linejoin:round"
       id="rect1065"
       width="79.375"
       height="79.375"
       x="-76.006081"
       y="16.434391"
       ry="0" />
    <path
       inkscape:export-ydpi="96"
       inkscape:export-xdpi="96"
       inkscape:export-filename="D:\Data\Repos\layv-net\spotlight-soundcloud.png"
       transform="scale(0.26458333)"
       d="M -452.78711 654.80859 L -452.78711 954.80859 L -405.39258 954.80859 L -406.77539 944.48047 L -403.76953 921.64453 C -403.65864 920.69867 -402.97698 920.03516 -402.11914 920.03516 C -401.29248 920.03516 -400.60664 920.69884 -400.47852 921.64062 L -396.91602 944.48047 L -398.55469 954.80859 L -391.51953 954.80859 L -392.67578 944.48047 C -392.67578 944.48047 -388.63477 907.56615 -388.63477 907.55859 C -388.51552 906.59943 -387.79493 905.90039 -386.92383 905.90039 C -386.05726 905.90039 -385.35462 906.57739 -385.21289 907.55859 L -380.61914 944.48047 L -381.93359 954.80859 L -375.73242 954.80859 L -376.67188 944.48633 L -372.83398 900.67969 C -372.72347 899.51238 -371.85684 898.66406 -370.77344 898.66406 C -369.70379 898.66406 -368.83711 899.50822 -368.70898 900.67969 L -364.35352 944.48633 L -365.41992 954.80859 L -359.66992 954.80859 L -360.5293 944.49414 L -356.9043 899.48633 C -356.8021 898.12918 -355.76348 897.11133 -354.49023 897.11133 C -353.23033 897.11133 -352.19082 898.12856 -352.08008 899.47656 L -347.95898 944.49414 L -348.93555 954.80859 L -343.45117 954.80859 L -344.25391 944.49414 L -340.83594 902.74414 C -340.7433 901.19174 -339.55736 900.02148 -338.07227 900.02148 C -336.60377 900.02148 -335.42066 901.18372 -335.31445 902.72656 L -331.43164 944.49414 L -332.34375 954.80859 L -327.09961 954.80859 L -327.85547 944.51172 L -324.63672 876.58398 C -324.55739 874.85961 -323.18719 873.50195 -321.5293 873.50195 L -321.5293 873.50586 C -319.88052 873.50586 -318.51353 874.86157 -318.41602 876.58594 L -314.77734 944.51562 L -315.63086 954.80859 L -310.60547 954.80859 L -311.31445 944.52539 L -308.30859 861.06055 C -308.22885 859.13718 -306.70934 857.62891 -304.84375 857.62891 C -302.99559 857.62891 -301.47391 859.13265 -301.38086 861.06055 L -297.98438 944.52539 L -298.78516 954.80859 L -293.97656 954.80859 L -294.64258 944.5293 L -291.84375 854.10156 C -291.77688 851.97921 -290.10107 850.31641 -288.02734 850.31641 C -285.97189 850.31641 -284.3007 851.97339 -284.2168 854.0957 L -281.06445 944.5332 L -281.81641 954.80859 L -277.2207 954.80859 L -277.8418 944.5332 L -275.25195 851.05469 C -275.19047 848.72922 -273.35865 846.91211 -271.08594 846.91211 C -268.82652 846.91211 -266.9968 848.73379 -266.92578 851.05469 L -264.00781 944.53906 L -264.70703 954.80859 L -260.33594 954.80859 L -260.91211 944.54688 L -258.5293 853.45117 C -258.47612 850.93132 -256.49214 848.95898 -254.01172 848.95898 C -251.54876 848.95898 -249.56453 850.93091 -249.49805 853.45117 L -246.81445 944.54297 L -247.46094 954.80859 L -243.31836 954.80859 L -243.8457 944.55273 L -241.67188 856.78516 C -241.61912 854.06174 -239.47366 851.93555 -236.79883 851.93555 L -236.79883 851.93359 C -234.12898 851.93359 -231.99746 854.06112 -231.93555 856.77539 L -229.49609 944.55664 L -230.08789 954.80859 L -226.16211 954.80859 C -226.34034 951.0018 -226.64453 944.54168 -226.64453 944.52539 L -224.67578 840.11719 C -224.63133 837.24796 -222.29291 834.91797 -219.45898 834.91797 C -216.62921 834.91797 -214.29079 837.25079 -214.24219 840.11133 L -212.03906 944.56055 L -212.57812 954.80859 L -209.48438 954.80859 L -210.05078 944.57422 L -207.76953 830.66016 C -207.72508 827.59651 -205.23084 825.10156 -202.19336 825.10156 C -199.16502 825.10156 -196.6729 827.59547 -196.62891 830.65039 L -194.14844 944.57422 L -194.76172 954.80859 L -191.85742 954.80859 L -191.85742 825.24414 C -191.82211 822.29513 -190.80382 820.77365 -186.98828 819.29688 C -177.16881 815.49921 -166.04932 813.25391 -154.64258 813.25391 C -154.02197 813.25391 -153.40468 813.26278 -152.78711 813.27539 L -152.78711 654.80859 L -452.78711 654.80859 z "
       style="fill:#ffdaca;stroke-width:3.74154;stroke-linejoin:round;fill-opacity:1"
       id="rect1262" />
  </g>
</svg>
